{"title":"Super.Fun.Night.S01E01.Anything.for.Love.1080p.WEB-DL.DD5.1.H.26","uid":9380178,"size":922663623,"categoryP":"video","categoryS":"hd___tv_shows","magnet":"?xt=urn:btih:7e14678256f2fe594981105c8f7639f792b8f807&amp;dn=Super.Fun.Night.S01E01.Anything.for.Love.1080p.WEB-DL.DD5.1.H.26&amp;tr=udp%3A%2F%2Ftracker.openbittorrent.com%3A80&amp;tr=udp%3A%2F%2Fopen.demonii.com%3A1337&amp;tr=udp%3A%2F%2Ftracker.coppersurfer.tk%3A6969&amp;tr=udp%3A%2F%2Fexodus.desync.com%3A6969","seeders":1,"leechers":0,"uploader":"azcom_","files":1,"time":1387699071,"description":"General\nUnique ID                      : 186345094167197961360617882759020679222 (0x8C30C27AB1126F24BE45623A54841036)\nComplete name                  : P:SharesVideosTVContinuingSuper Fun NightSeason 1Super.Fun.Night.S01E01.Anything.for.Love.1080p.WEB-DL.DD5.1.H.264-NTb.mkv\nFormat                         : Matroska\nFormat version                 : Version 4 / Version 2\nFile size                      : 880 MiB\nDuration                       : 21mn 37s\nOverall bit rate               : 5 689 Kbps\nEncoded date                   : UTC 2013-11-15 01:18:41\nWriting application            : mkvmerge v6.5.0 ('Isn't she lovely') built on Oct 20 2013 12:50:05\nWriting library                : libebml v1.3.0 + libmatroska v1.4.1\n\nVideo\nID                             : 1\nFormat                         : AVC\nFormat/Info                    : Advanced Video Codec\nFormat profile                 : &lt;a class=&quot;__cf_email__&quot; href=&quot;/cdn-cgi/l/email-protection&quot; data-cfemail=&quot;044c6d636c4448302a34&quot;&gt;[email&amp;#160;protected]&lt;/a&gt;&lt;script cf-hash='f9e31' type=&quot;text/javascript&quot;&gt;\n/* &lt;![CDATA[ */!function(){try{var t=&quot;currentScript&quot;in document?document.currentScript:function(){for(var t=document.getElementsByTagName(&quot;script&quot;),e=t.length;e--;)if(t[e].getAttribute(&quot;cf-hash&quot;))return t[e]}();if(t&amp;&amp;t.previousSibling){var e,r,n,i,c=t.previousSibling,a=c.getAttribute(&quot;data-cfemail&quot;);if(a){for(e=&quot;&quot;,r=parseInt(a.substr(0,2),16),n=2;a.length-n;n+=2)i=parseInt(a.substr(n,2),16)^r,e+=String.fromCharCode(i);e=document.createTextNode(e),c.parentNode.replaceChild(e,c)}}}catch(u){}}();/* ]]&gt; */&lt;/script&gt;\nFormat settings, CABAC         : Yes\nFormat settings, ReFrames      : 4 frames\nCodec ID                       : V_MPEG4/ISO/AVC\nDuration                       : 21mn 37s\nBit rate                       : 5 192 Kbps\nWidth                          : 1 916 pixels\nHeight                         : 1 080 pixels\nDisplay aspect ratio           : 16:9\nFrame rate mode                : Constant\nFrame rate                     : 23.976 fps\nColor space                    : YUV\nChroma subsampling             : 4:2:0\nBit depth                      : 8 bits\nScan type                      : Progressive\nBits/(Pixel*Frame)             : 0.105\nStream size                    : 803 MiB (91%)\nLanguage                       : English\nDefault                        : Yes\nForced                         : No\nColor primaries                : BT.709\nTransfer characteristics       : BT.709\nMatrix coefficients            : BT.709\n\nAudio\nID                             : 2\nFormat                         : AC-3\nFormat/Info                    : Audio Coding 3\nMode extension                 : CM (complete main)\nFormat settings, Endianness    : Big\nCodec ID                       : A_AC3\nDuration                       : 21mn 37s\nBit rate mode                  : Constant\nBit rate                       : 384 Kbps\nChannel count                  : 6 channels\nChannel positions              : Front: L C R, Side: L R, LFE\nSampling rate                  : 48.0 KHz\nBit depth                      : 16 bits\nCompression mode               : Lossy\nStream size                    : 59.4 MiB (7%)\nLanguage                       : English\nDefault                        : Yes\nForced                         : No\n\nText\nID                             : 3\nFormat                         : UTF-8\nCodec ID                       : S_TEXT/UTF8\nCodec ID/Info                  : UTF-8 Plain Text\nLanguage                       : English\nDefault                        : No\nForced                         : No\n\n","torrent":{"xt":"urn:btih:7e14678256f2fe594981105c8f7639f792b8f807","amp;dn":"Super.Fun.Night.S01E01.Anything.for.Love.1080p.WEB-DL.DD5.1.H.26","amp;tr":["udp%3A%2F%2Ftracker.openbittorrent.com%3A80","udp%3A%2F%2Fopen.demonii.com%3A1337","udp%3A%2F%2Ftracker.coppersurfer.tk%3A6969","udp%3A%2F%2Fexodus.desync.com%3A6969"],"infoHash":"7e14678256f2fe594981105c8f7639f792b8f807","infoHashBuffer":{"type":"Buffer","data":[126,20,103,130,86,242,254,89,73,129,16,92,143,118,57,247,146,184,248,7]},"announce":[],"urlList":[]}}